<svg id="Layer_1" enable-background="new 0 0 512.002 512.002" height="512" viewBox="0 0 512.002 512.002" width="512" xmlns="http://www.w3.org/2000/svg"><g><g><path d="m102.704 419.165c-54.603 0-100.183-43.102-102.603-98.087-1.205-27.379 8.343-53.584 26.885-73.789 18.535-20.197 43.84-31.979 71.253-33.176 56.59-2.476 104.663 41.485 107.149 97.988 1.205 27.379-8.343 53.584-26.886 73.789-18.535 20.197-43.84 31.979-71.253 33.176-1.518.066-3.038.099-4.545.099zm.066-175.151c-1.069 0-2.143.023-3.222.071-19.416.848-37.335 9.19-50.458 23.489-13.116 14.292-19.87 32.824-19.018 52.185 1.761 39.983 35.799 71.084 75.869 69.336 19.416-.848 37.336-9.19 50.459-23.49 13.116-14.292 19.87-32.824 19.018-52.185-1.713-38.906-33.987-69.406-72.648-69.406z" fill="#F2F2F2"/></g><g><path d="m409.148 419.502c-25.739.001-50.188-9.486-69.289-26.982-20.237-18.537-32.044-43.845-33.246-71.262-2.482-56.598 41.545-104.663 98.143-107.145 56.602-2.491 104.662 41.545 107.145 98.143 1.202 27.417-8.344 53.662-26.881 73.899s-43.845 32.044-71.262 33.246c-1.54.068-3.078.101-4.61.101zm.148-175.488c-1.072 0-2.145.023-3.226.071-19.411.851-37.33 9.211-50.454 23.539s-19.883 32.909-19.032 52.32c.852 19.412 9.211 37.33 23.539 50.454 14.327 13.124 32.915 19.883 52.32 19.032 19.412-.851 37.33-9.211 50.454-23.539s19.883-32.909 19.032-52.321c-1.709-38.99-33.979-69.556-72.633-69.556z" fill="#F2F2F2"/></g><path d="m423.121 311.019-77.53-187.28-3.09-7.465-29.371 7.465 12.84 31.03h-129.41l-12.49-30.5-2.36-5.77h-32.42l2.03 4.95 18.43 45-80.04 140.72c-2.55 4.48-2.62 9.95-.2 14.49 2.43 4.54 7.01 7.52 12.15 7.89l139.02 10.1 9.3 22.7 23.28 7.19h12.08l-2.96-7.24-17.55-42.85 80.24-120.54 50.33 121.59c2.39 5.77 7.97 9.26 13.86 9.26 1.91 0 3.86-.37 5.73-1.14 7.661-3.17 11.291-11.94 8.131-19.6zm-295.59-7.67 56.67-99.63 43.78 106.93zm122.45-13.727-41.13-104.853h110.93z" fill="#ff1f3d"/><g><path d="m239.461 108.379c0 8.78-7.11 15.89-15.88 15.89l-72.26-.82-4.21-10.27c-3.14-7.67.53-16.43 8.2-19.57 1.75-.71 3.55-1.07 5.33-1.11h62.94c8.77 0 15.88 7.11 15.88 15.88z" fill="#F2F2F2"/></g><path d="m423.121 311.019-77.53-187.28-3.09-7.465-29.371 7.465 12.84 31.03h-75.99v30h69.8l-69.8 104.853v74.727l23.28 7.19h12.08l-2.96-7.24-17.55-42.85 80.24-120.54 50.33 121.59c2.39 5.77 7.97 9.26 13.86 9.26 1.91 0 3.86-.37 5.73-1.14 7.661-3.17 11.291-11.94 8.131-19.6z" fill="#e20059"/><g><path d="m448.191 132.659c0 21.47-17.46 38.93-38.92 38.93h-7.29c-8.29 0-15-6.72-15-15 0-8.29 6.71-15 15-15h7.29c4.92 0 8.92-4.01 8.92-8.93 0-4.91-4-8.92-8.92-8.92h-96.14l-3.83-9.26c-3.17-7.65.46-16.43 8.12-19.6 1.64-.67 3.33-1.04 5-1.12.26-.01.51-.02.74-.02h86.11c21.46 0 38.92 17.46 38.92 38.92z" fill="#F2F2F2"/></g><g><path d="m307.381 379.299c0 8.28-6.71 15-15 15h-20.07c-.36 0-.73-.01-1.1-.04-5.49-.41-10.55-3.83-12.78-9.28l-8.45-20.63c.31-.03.67-.05 1.06-.05h41.34c8.29 0 15 6.71 15 15z" fill="#F2F2F2"/></g></g></svg>
