<svg id="Capa_1" enable-background="new 0 0 512 512" height="512" viewBox="0 0 512 512" width="512" xmlns="http://www.w3.org/2000/svg"><g><g><path d="m458.994 393.218c26.515-39.149 42.006-86.374 42.006-137.218 0-135.31-109.69-245-245-245s-245 109.69-245 245c0 50.844 15.491 98.069 42.006 137.218z" fill="#bbec6c"/></g><g><g><path d="m105.663 199.215c-1.655-1.655-4.361-1.55-5.903.211-22.185 25.33-21.199 63.881 2.956 88.037 24.155 24.155 62.707 25.141 88.037 2.956 1.761-1.542 1.866-4.248.211-5.903z" fill="#fd4755"/></g><g><path d="m114.857 208.409c-15.252 18.68-14.17 46.246 3.248 63.664s44.984 18.5 63.664 3.248z" fill="#e41f2d"/></g><g><ellipse cx="131.643" cy="258.535" fill="#fef0ae" rx="8.061" ry="4.836" transform="matrix(.707 -.707 .707 .707 -144.255 168.809)"/></g><g><g><ellipse cx="119.318" cy="230.251" fill="#fef0ae" rx="8.061" ry="4.836"/></g></g></g><g><g><path d="m147.638 108.087c-3.705 0-6.926-2.744-7.426-6.516-.544-4.106 2.344-7.876 6.45-8.42l16.768-2.222-3.807-16.48c-.932-4.036 1.583-8.063 5.62-8.996 4.032-.93 8.063 1.583 8.996 5.62l5.665 24.52c.476 2.059.061 4.223-1.143 5.96s-3.084 2.885-5.179 3.163l-24.947 3.306c-.337.043-.669.065-.997.065z" fill="#017b4e"/></g><g><path d="m168.583 122.602c-3.705 0-6.926-2.744-7.426-6.516-.544-4.106 2.344-7.876 6.45-8.42l16.768-2.222-3.807-16.48c-.932-4.036 1.583-8.063 5.62-8.996 4.033-.93 8.063 1.583 8.996 5.62l5.665 24.52c.476 2.059.061 4.223-1.143 5.96s-3.084 2.886-5.18 3.163l-24.948 3.305c-.335.045-.667.066-.995.066z" fill="#017b4e"/></g><path d="m220.591 119.424-4.464-19.321c-.932-4.036-4.965-6.55-8.996-5.62-4.036.933-6.552 4.96-5.62 8.996l3.807 16.48-16.768 2.222c-4.106.544-6.994 4.314-6.45 8.42.5 3.772 3.721 6.516 7.426 6.516.328 0 .66-.021.994-.066l15.834-2.098c3.797-6.018 8.625-11.275 14.237-15.529z" fill="#017b4e"/><path d="m219.248 120.487-63.098-43.728c-3.405-2.359-8.077-1.511-10.437 1.893-2.359 3.404-1.512 8.077 1.893 10.437l61.134 42.366c3.023-4.107 6.559-7.79 10.508-10.968z" fill="#026841"/></g><path d="m315.732 156.571c-4.786-28.451-29.521-50.133-59.333-50.133s-54.547 21.681-59.333 50.133z" fill="#fff"/><path d="m228.655 155.571c4.235-22.797 21.313-41.077 43.452-47.049-5.009-1.351-10.272-2.084-15.708-2.084-29.462 0-53.963 21.175-59.155 49.133z" fill="#eaf6ff"/><g><path d="m163.147 334.252c.092-1.179.153-2.366.153-3.569 0-24.929-20.209-45.139-45.139-45.139-24.929 0-45.139 20.209-45.139 45.139 0 1.203.061 2.39.153 3.569z" fill="#fe860a"/></g><g><path d="m94.081 333.252c-.048-.851-.081-1.706-.081-2.569 0-21.317 14.781-39.17 34.65-43.901-3.367-.802-6.876-1.238-10.489-1.238-24.929 0-45.139 20.209-45.139 45.139 0 .863.03 1.718.077 2.569z" fill="#fe7701"/></g><g><g><path d="m346.676 257.133h-180.555c-15.581 0-28.212-12.631-28.212-28.212v-45.139c0-15.581 12.631-28.212 28.212-28.212h180.555c15.581 0 28.212 12.631 28.212 28.212v45.139c0 15.582-12.631 28.212-28.212 28.212z" fill="#d88a55"/></g><path d="m179.022 228.922v-45.139c0-15.581 12.631-28.212 28.212-28.212h-41.112c-15.581 0-28.212 12.631-28.212 28.212v45.139c0 15.581 12.631 28.212 28.212 28.212h41.112c-15.581 0-28.212-12.631-28.212-28.212z" fill="#c57a44"/><g><path d="m166.121 243.028c-7.778 0-14.106-6.328-14.106-14.106v-45.139c0-7.778 6.328-14.106 14.106-14.106h180.555c7.778 0 14.106 6.328 14.106 14.106v45.139c0 7.778-6.327 14.106-14.106 14.106z" fill="#fd8087"/></g><g><path d="m166.121 219.518v-26.331c0-5.194 4.21-9.404 9.404-9.404h161.747c5.194 0 9.404 4.21 9.404 9.404v26.331c0 5.194-4.21 9.404-9.404 9.404h-161.747c-5.193 0-9.404-4.21-9.404-9.404z" fill="#fe99a0"/></g></g><path d="m149.76 307.002c7.739 0 15.066 2.97 20.632 8.363l.696.674.696-.674c5.565-5.393 12.893-8.363 20.632-8.363s15.066 2.97 20.631 8.363l.696.674.696-.674c5.566-5.393 12.893-8.363 20.632-8.363s15.066 2.97 20.632 8.363l.696.674.696-.674c5.565-5.393 12.893-8.363 20.632-8.363s15.065 2.97 20.631 8.363l.696.674.696-.674c5.565-5.393 12.893-8.363 20.632-8.363 6.934 0 13.686 2.457 19.013 6.917l.623.522.639-.504c3.359-2.654 7.363-4.335 11.576-4.863l1.118-.14-.271-1.094c-.465-1.871-.701-3.754-.701-5.597 0-11.373 8.473-21.324 19.708-23.146l.628-.102.174-.612c.856-3.018 2.052-5.933 3.533-8.696-4.566-8.587-13.6-14.436-24.003-14.436h-192.039c-15.007 0-27.172 12.165-27.172 27.172v29.68c4.754-3.22 10.465-5.101 16.552-5.101z" fill="#ffd766"/><path d="m149.76 306.003c5.394 0 10.456 1.402 14.858 3.85v-27.428c0-1.131.077-2.243.211-3.337h-31.41c-.134 1.094-.211 2.207-.211 3.337v28.436c4.775-3.07 10.453-4.858 16.552-4.858z" fill="#fac600"/><path d="m215.569 282.618 7.236 7.236c4.707 4.707 12.339 4.707 17.046 0l6.28-6.28c4.707-4.707 12.339-4.707 17.046 0 4.707 4.707 12.339 4.707 17.046 0l6.787-6.787c2.26-2.26 5.326-3.53 8.523-3.53h79.171c.516-1.212 1.089-2.398 1.711-3.559-4.564-8.59-13.594-14.444-23.999-14.444h-192.036c-13.876 0-25.315 10.404-26.961 23.835h73.627c3.197-.002 6.262 1.268 8.523 3.529z" fill="#a44f3e"/><g><path d="m331.711 332.884c-.011-.181-.021-.362-.021-.546 0-7.531 3.573-14.24 9.108-18.533-5.422-4.847-12.571-7.801-20.416-7.801-8.292 0-15.809 3.297-21.328 8.645-5.519-5.348-13.036-8.645-21.328-8.645s-15.809 3.297-21.328 8.645c-5.519-5.348-13.036-8.645-21.328-8.645s-15.809 3.297-21.328 8.645c-5.519-5.348-13.036-8.645-21.328-8.645s-15.809 3.297-21.328 8.645c-5.519-5.348-13.036-8.645-21.328-8.645-16.121 0-29.326 12.444-30.555 28.249h212.567z" fill="#fff"/></g><g><path d="m150.61 333.252c1.083-9.769 6.743-18.155 14.802-22.951-4.581-2.728-9.931-4.298-15.651-4.298-15.779 0-28.769 11.922-30.465 27.249z" fill="#eaf6ff"/></g><g><g><path d="m375.828 278.795h30.093c1.068 0 2.118.078 3.149.218-2.52-9.645-8.149-18.032-15.771-24.007-1.721-1.349-4.135-1.349-5.856 0-7.666 6.01-13.317 14.459-15.815 24.174 1.363-.249 2.766-.385 4.2-.385z" fill="#026841"/></g><path d="m355.14 308.887h71.47c.942 0 1.869.062 2.782.171.633-2.165.979-4.45.979-6.813 0-13.448-11.003-24.45-24.45-24.45h-30.093c-13.448 0-24.45 11.003-24.45 24.45 0 2.363.346 4.648.979 6.813.914-.109 1.841-.171 2.783-.171z" fill="#02905d"/><path d="m355.14 307.887h28.528c-.433-1.813-.668-3.701-.668-5.642 0-13.191 10.589-24.022 23.685-24.431-.255-.008-.508-.02-.765-.02h-30.093c-13.448 0-24.45 11.003-24.45 24.45 0 2.012.251 3.967.715 5.84 1-.125 2.016-.197 3.048-.197z" fill="#017b4e"/><g><path d="m450.977 334.252c.05-.633.083-1.27.083-1.915 0-13.448-11.002-24.45-24.45-24.45h-71.47c-13.448 0-24.45 11.003-24.45 24.45 0 .645.033 1.282.083 1.915z" fill="#017b4e"/></g><g><path d="m362.023 333.252c-.011-.304-.023-.608-.023-.914 0-13.448 11.003-24.45 24.45-24.45h-31.31c-13.448 0-24.45 11.003-24.45 24.45 0 .307.012.61.023.914z" fill="#026841"/></g></g><path d="m50.519 350.94 25.891 40.872c.307.484.635.95.975 1.406h357.229c.339-.456.668-.922.975-1.406l25.891-40.872z" fill="#6b92c7"/><path d="m96.153 351.94h-45l25.258 39.872c.088.139.185.27.276.406h45c-.091-.137-.188-.267-.276-.406z" fill="#5a86be"/><g><g><path d="m485.656 351.94h-459.312c-5.161 0-9.344-4.183-9.344-9.344s4.183-9.344 9.344-9.344h459.311c5.16 0 9.344 4.183 9.344 9.344s-4.183 9.344-9.343 9.344z" fill="#5a86be"/></g></g><path d="m94 342.596c0-5.161 4.183-9.344 9.344-9.344h-77c-5.161 0-9.344 4.183-9.344 9.344s4.183 9.344 9.344 9.344h77c-5.161 0-9.344-4.183-9.344-9.344z" fill="#4a7ab5"/><g><path d="m202.066 183.783-35.934 35.934c.107 5.1 4.268 9.204 9.394 9.204h2.76l45.139-45.139h-21.359z" fill="#fe646f"/></g><g><path d="m225.453 228.922 45.139-45.139h-21.359l-45.138 45.139z" fill="#fe646f"/></g><g><path d="m291.905 228.922 45.139-45.139h-21.359l-45.138 45.139z" fill="#fe646f"/></g><g><path d="m318.285 99.517-8.591 8.591c-.781.781-2.047.781-2.828 0l-8.591-8.591c-.781-.781-.781-2.047 0-2.828l8.591-8.591c.781-.781 2.047-.781 2.828 0l8.591 8.591c.781.781.781 2.047 0 2.828z" fill="#09a76d"/></g><g><path d="m298.414 43.005-8.591 8.591c-.781.781-2.047.781-2.828 0l-8.591-8.591c-.781-.781-.781-2.047 0-2.828l8.591-8.591c.781-.781 2.047-.781 2.828 0l8.591 8.591c.781.781.781 2.047 0 2.828z" fill="#09a76d"/></g><g><path d="m274.596 87.005-8.591 8.591c-.781.781-2.047.781-2.828 0l-8.591-8.591c-.781-.781-.781-2.047 0-2.828l8.591-8.591c.781-.781 2.047-.781 2.828 0l8.591 8.591c.781.781.781 2.047 0 2.828z" fill="#017b4e"/></g><g><path d="m290.473 135.404-8.591 8.591c-.781.781-2.047.781-2.828 0l-8.591-8.591c-.781-.781-.781-2.047 0-2.828l8.591-8.591c.781-.781 2.047-.781 2.828 0l8.591 8.591c.781.78.781 2.047 0 2.828z" fill="#017b4e"/></g><g><path d="m83.567 430.014c44.271 43.873 105.18 70.986 172.433 70.986s128.162-27.113 172.433-70.986z" fill="#d88a55"/><g><path d="m507 431.014h-502c-2.761 0-5-2.239-5-5v-28.795c0-2.761 2.239-5 5-5h502c2.761 0 5 2.239 5 5v28.795c0 2.761-2.239 5-5 5z" fill="#f6a96c"/></g><path d="m50 426.014v-28.795c0-2.761 2.239-5 5-5h-50c-2.761 0-5 2.239-5 5v28.795c0 2.761 2.239 5 5 5h50c-2.761 0-5-2.239-5-5z" fill="#d88a55"/></g><path d="m160.377 255.253c-13.875.001-25.312 10.404-26.958 23.835h31.41c1.646-13.43 13.083-23.833 26.958-23.835z" fill="#883f2e"/></g></svg>