<svg id="Capa_1" enable-background="new 0 0 512 512" height="512" viewBox="0 0 512 512" width="512" xmlns="http://www.w3.org/2000/svg" xmlns:xlink="http://www.w3.org/1999/xlink"><linearGradient id="lg1"><stop offset="0" stop-color="#ffe59a"/><stop offset="1" stop-color="#ffffd5"/></linearGradient><linearGradient id="SVGID_1_" gradientTransform="matrix(.707 .707 -.707 .707 298.426 -88.465)" gradientUnits="userSpaceOnUse" x1="246.683" x2="180.465" xlink:href="#lg1" y1="340.865" y2="274.647"/><linearGradient id="lg2"><stop offset="0" stop-color="#fd5900"/><stop offset="1" stop-color="#ffde00"/></linearGradient><linearGradient id="SVGID_2_" gradientTransform="matrix(.707 .707 -.707 .707 298.426 -88.465)" gradientUnits="userSpaceOnUse" x1="213.574" x2="213.574" xlink:href="#lg2" y1="277.756" y2="37.756"/><linearGradient id="SVGID_3_" gradientTransform="matrix(.707 .707 -.707 .707 298.426 -88.465)" gradientUnits="userSpaceOnUse" x1="246.683" x2="180.465" xlink:href="#lg1" y1="190.865" y2="124.647"/><linearGradient id="SVGID_4_" gradientTransform="matrix(.707 .707 -.707 .707 298.426 -88.465)" gradientUnits="userSpaceOnUse" x1="297.569" x2="234.605" xlink:href="#lg1" y1="189.251" y2="126.287"/><linearGradient id="SVGID_5_" gradientTransform="matrix(.707 .707 -.707 .707 298.426 -88.465)" gradientUnits="userSpaceOnUse" x1="195.789" x2="126.344" xlink:href="#lg1" y1="192.485" y2="123.041"/><linearGradient id="SVGID_6_" gradientUnits="userSpaceOnUse" x1="118.113" x2="118.113" xlink:href="#lg2" y1="512" y2="275.773"/><g><g><path d="m189.403 322.597c-5.863-5.863-5.863-15.351 0-21.213l63.64-63.64c5.863-5.863 15.351-5.863 21.213 0 5.863 5.863 5.863 15.351 0 21.213l-63.64 63.64c-5.862 5.862-15.35 5.862-21.213 0z" fill="url(#SVGID_1_)"/></g><g><g><path d="m316.682 322.597-127.279-127.279c-5.283-5.283-5.873-13.642-1.398-19.608l127.279-169.706c2.61-3.48 6.608-5.655 10.938-5.966s8.607 1.295 11.673 4.361l169.706 169.706c3.066 3.066 4.671 7.344 4.361 11.673-.311 4.33-2.486 8.328-5.966 10.938l-169.706 127.279c-5.966 4.475-14.325 3.884-19.608-1.398z" fill="url(#SVGID_2_)"/></g></g><g id="Spatulaa_1_"><g><path d="m295.469 216.531c-5.863-5.863-5.863-15.351 0-21.213l63.64-63.64c5.863-5.863 15.351-5.863 21.213 0 5.863 5.863 5.863 15.351 0 21.213l-63.64 63.64c-5.862 5.862-15.35 5.862-21.213 0z" fill="url(#SVGID_3_)"/></g><g><g><path d="m330.334 251.396c-.269-.269-.508-.528-.756-.818-5.428-6.256-4.744-15.723 1.512-21.151l68.197-59.082c6.298-5.428 15.723-4.62 21.172 1.533 5.428 6.256 4.744 15.723-1.512 21.151l-68.197 59.082c-5.997 5.168-14.905 4.795-20.416-.715z" fill="url(#SVGID_4_)"/></g><g><path d="m260.604 181.666c-5.51-5.51-5.883-14.418-.715-20.416l59.082-68.197c5.428-6.256 14.895-6.94 21.151-1.512 6.204 5.438 6.961 14.874 1.533 21.172l-59.082 68.197c-5.428 6.256-14.895 6.94-21.151 1.512-.29-.249-.548-.487-.818-.756z" fill="url(#SVGID_5_)"/></g></g></g><g><g><path d="m231.83 322.597-42.426-42.426c-5.863-5.863-15.351-5.863-21.213 0l-155.031 155.03c-17.546 17.546-17.546 46.093 0 63.64 17.546 17.546 46.093 17.546 63.64 0l155.03-155.03c5.862-5.864 5.862-15.352 0-21.214z" fill="url(#SVGID_6_)"/></g></g></g></svg>