<svg id="Capa_1" enable-background="new 0 0 497 497" height="512" viewBox="0 0 497 497" width="512" xmlns="http://www.w3.org/2000/svg"><g><path d="m496.475 111.877c-.008-.038-.017-.076-.025-.114l-.028-.13c-4.886-22.599-22.54-40.251-45.139-45.137-.518-.221-21.929-3.518-36.146-24.126l-.012-.018c-13.177-19.069-36.307-28.644-59.106-24.469-.574-.006-21.544 5.106-42.553-8.437l-.07-.045c-19.458-12.539-44.455-12.53-63.905.023-.549.221-17.793 12.833-42.175 8.531l-.77-.136c-22.702-4.006-45.656 5.584-58.76 24.549-.41.401-11.617 18.817-36.021 24.1l-.133.029c-22.595 4.891-40.243 22.54-45.133 45.135-.22.515-3.517 21.852-24.037 36.086l-.974.676c-18.822 13.057-28.096 36.043-23.603 58.506 0 .534 5.364 21.149-7.932 41.769l-.552.856c-12.537 19.443-12.536 44.423.001 63.866.507 1.241 14.626 18.043 8.482 42.622v.001c-5.407 21.629 3.147 44.345 21.477 57.036 1.123 1.101 21.41 11.75 27.108 38.103l.029.133c4.886 22.597 22.538 40.248 45.136 45.133l.129.028c.038.008.077.017.115.025 7.289 1.593 14.891-.472 20.167-5.748l30.02-30.02 125.909-172.732 172.733-125.909 30.02-30.02c5.276-5.275 7.341-12.878 5.748-20.166z" fill="#ffca8a"/><path d="m17.886 356.014c-4.238 16.953.103 34.572 11.004 47.509 7.096-64.77 55.92-152.546 134.28-230.906 85.567-85.567 182.362-135.918 248.166-135.169-13.545-15.771-34.567-23.365-55.318-19.565-.574-.006-21.544 5.106-42.553-8.437l-.07-.045c-19.458-12.539-44.455-12.53-63.905.023-.549.221-17.793 12.833-42.175 8.531l-.77-.136c-22.702-4.006-45.656 5.583-58.76 24.549-.41.401-11.617 18.817-36.021 24.1l-.133.029c-22.595 4.891-40.243 22.54-45.133 45.135-.22.515-3.517 21.852-24.037 36.086l-.974.676c-18.822 13.057-28.096 36.043-23.603 58.506 0 .534 5.364 21.149-7.932 41.769l-.552.856c-12.537 19.443-12.536 44.423.001 63.866.51 1.242 14.629 18.044 8.485 42.623z" fill="#ffbe73"/><g><path d="m137.205 144.702c-1.919 0-3.839-.732-5.303-2.197l-29.926-29.926c-2.929-2.929-2.929-7.678 0-10.607s7.678-2.929 10.606 0l29.926 29.926c2.929 2.929 2.929 7.678 0 10.607-1.464 1.465-3.384 2.197-5.303 2.197z" fill="#ffb25a"/></g><g><path d="m92.931 210.871c-.957 0-1.928-.184-2.867-.573l-39.177-16.227c-3.827-1.585-5.644-5.972-4.059-9.799s5.972-5.645 9.799-4.059l39.177 16.227c3.827 1.585 5.644 5.972 4.059 9.799-1.197 2.888-3.99 4.632-6.932 4.632z" fill="#ffb25a"/></g><g><path d="m77.453 288.957h-42.322c-4.142 0-7.5-3.358-7.5-7.5s3.358-7.5 7.5-7.5h42.322c4.142 0 7.5 3.358 7.5 7.5s-3.359 7.5-7.5 7.5z" fill="#ffb25a"/></g><g><path d="m53.76 383.275c-2.943 0-5.736-1.744-6.932-4.632-1.585-3.827.232-8.214 4.059-9.799l39.178-16.228c3.827-1.585 8.214.232 9.799 4.059s-.232 8.214-4.059 9.799l-39.178 16.228c-.939.389-1.911.573-2.867.573z" fill="#ffbe73"/></g><g><path d="m107.279 463.139c-1.919 0-3.839-.732-5.303-2.197-2.929-2.929-2.929-7.678 0-10.607l29.926-29.926c2.929-2.929 7.678-2.929 10.606 0 2.929 2.929 2.929 7.678 0 10.607l-29.926 29.926c-1.464 1.465-3.383 2.197-5.303 2.197z" fill="#ffbe73"/></g><g><path d="m203.375 100.433c-2.943 0-5.736-1.744-6.932-4.632l-16.227-39.177c-1.585-3.827.232-8.214 4.059-9.799 3.828-1.585 8.214.232 9.799 4.059l16.227 39.177c1.585 3.827-.232 8.214-4.059 9.799-.938.389-1.911.573-2.867.573z" fill="#ffb25a"/></g><g><path d="m281.46 84.95c-4.142 0-7.5-3.358-7.5-7.5v-42.322c0-4.142 3.358-7.5 7.5-7.5s7.5 3.358 7.5 7.5v42.322c0 4.142-3.357 7.5-7.5 7.5z" fill="#ffb25a"/></g><g><path d="m359.545 100.434c-.957 0-1.928-.184-2.867-.573-3.827-1.585-5.644-5.972-4.059-9.799l16.228-39.178c1.585-3.827 5.971-5.644 9.799-4.059 3.827 1.585 5.644 5.972 4.059 9.799l-16.228 39.178c-1.196 2.888-3.989 4.632-6.932 4.632z" fill="#ffbe73"/></g><g><path d="m425.716 144.702c-1.919 0-3.839-.732-5.303-2.197-2.929-2.929-2.929-7.678 0-10.607l29.926-29.926c2.929-2.929 7.678-2.929 10.606 0 2.929 2.929 2.929 7.678 0 10.607l-29.926 29.926c-1.464 1.465-3.383 2.197-5.303 2.197z" fill="#ffbe73"/></g><path d="m436.146 132.692c-83.796-83.796-219.655-83.796-303.451 0s-83.796 219.655 0 303.451c9.205 9.205 19.046 17.381 29.371 24.561l298.642-298.641c-7.181-10.324-15.357-20.166-24.562-29.371z" fill="#ffdebb"/><g fill="#ff8997"><ellipse cx="184.573" cy="329.676" rx="38.023" ry="30.279" transform="matrix(.707 -.707 .707 .707 -179.057 227.074)"/><ellipse cx="330.305" cy="183.944" rx="38.023" ry="30.279" transform="matrix(.707 -.707 .707 .707 -33.325 287.435)"/></g><g><path d="m174.328 298.7-10.991-10.991c-2.929-2.929-2.929-7.678 0-10.607s7.678-2.929 10.606 0l10.991 10.991c2.929 2.929 2.929 7.678 0 10.607-2.929 2.928-7.678 2.929-10.606 0z" fill="#423e4f"/></g><g><path d="m288.722 184.306-10.991-10.991c-2.929-2.929-2.929-7.678 0-10.607s7.678-2.929 10.606 0l10.991 10.991c2.929 2.929 2.929 7.678 0 10.607-2.928 2.928-7.678 2.929-10.606 0z" fill="#423e4f"/></g><g><path d="m220.908 258.434c-4.133-.284-7.252-3.864-6.969-7.996s3.875-7.25 7.996-6.969c6.005.414 11.887-1.785 16.132-6.031 4.245-4.245 6.443-10.125 6.031-16.133-.284-4.132 2.836-7.712 6.969-7.996 4.131-.282 7.713 2.836 7.996 6.969.709 10.334-3.077 20.455-10.389 27.766-7.314 7.315-17.436 11.1-27.766 10.39z" fill="#423e4f"/></g><path d="m163.17 172.617c44.234-44.234 91.467-79.046 135.872-102.268-59.679-4.051-120.728 16.724-166.347 62.343-43.822 43.822-64.711 101.882-62.699 159.289 22.84-39.474 54.383-80.573 93.174-119.364z" fill="#ffca8a"/></g></svg>