<?xml version="1.0" encoding="iso-8859-1"?>
<!-- Generator: Adobe Illustrator 19.0.0, SVG Export Plug-In . SVG Version: 6.00 Build 0)  -->
<svg version="1.1" id="Capa_1" xmlns="http://www.w3.org/2000/svg" xmlns:xlink="http://www.w3.org/1999/xlink" x="0px" y="0px"
	 viewBox="0 0 512.179 512.179" style="enable-background:new 0 0 512.179 512.179;" xml:space="preserve">
<g transform="translate(-1)">
	<path style="fill:#FFB25A;" d="M451.396,81.482c-44.1-5.735-88.896-2.826-131.884,8.563l-2.119,0.53
		c-25.355,6.799-49.805,16.608-72.828,29.219c-1.148,0.618-2.207,1.236-3.354,1.854c-0.53,0.353-1.148,0.618-1.677,0.971
		c-0.519,0.261-1.02,0.556-1.501,0.883c-0.343,0.174-0.668,0.381-0.971,0.618c-0.441,0.265-0.794,0.441-1.236,0.706
		c-17.996,10.604-34.96,22.869-50.67,36.634c0,0.088-0.088,0.088-0.177,0.177c-1.148,0.971-2.207,1.854-3.354,2.913
		c-4.237,3.884-8.563,7.945-12.712,12.094c-7.19,7.143-13.968,14.688-20.303,22.599c-1.324,1.501-2.56,3.09-3.796,4.679v0.088
		c0,0.088,0,0.088-0.088,0c0,0.024-0.009,0.046-0.025,0.063c-0.017,0.017-0.039,0.026-0.063,0.025
		c-14.576,18.831-26.846,39.339-36.546,61.087c-10.384,23.106-18.057,47.338-22.863,72.21c-0.883,4.855-1.766,9.622-2.56,14.389
		c-5.109,32.638-5.139,65.869-0.088,98.516c-9.682-2.23-19.183-5.18-28.425-8.828c-10.453-7.278-20.365-15.303-29.661-24.011
		c-3.277-2.916-6.236-6.171-8.828-9.71c-0.794-1.059-1.501-2.119-2.207-3.178c-0.971-1.412-1.854-2.825-2.737-4.326
		c-0.706-1.324-1.412-2.648-2.03-4.061c-0.766-1.429-1.444-2.903-2.03-4.414v-0.088c-9.403-20.439-6.969-44.372,6.356-62.499
		c3.095-3.864,6.9-7.1,11.211-9.533c-0.172-0.372-0.379-0.726-0.618-1.059c-0.53-0.883-1.059-1.766-1.501-2.648
		c-1.077-2.008-2.049-4.071-2.913-6.179c0-0.088,0-0.088-0.088-0.177c-0.794-2.03-1.501-4.237-2.119-6.444
		c-2.698-10.262-3.089-20.995-1.148-31.426c2.57-16.589,11.263-31.612,24.364-42.108c2.837-2.225,5.917-4.12,9.181-5.65
		c-0.608-3.409-0.903-6.866-0.883-10.328c0.021-3.699,0.345-7.389,0.971-11.034c0.265-1.412,0.53-2.737,0.883-4.149
		c3.217-13.747,10.363-26.261,20.568-36.017c3.005-2.92,6.253-5.578,9.71-7.945c-0.177-1.236-0.353-2.472-0.441-3.796
		c-0.088-1.324-0.177-2.56-0.177-3.884c-0.014-1.948,0.104-3.894,0.353-5.826c0.179-1.719,0.444-3.428,0.794-5.12
		c0.105-0.627,0.253-1.246,0.441-1.854c-0.021-0.21,0.009-0.422,0.088-0.618c0.36-1.553,0.802-3.085,1.324-4.59
		c0.634-2.049,1.401-4.054,2.295-6.003c3.697-8.377,8.938-15.983,15.448-22.422c10.083-10.431,23.222-17.387,37.517-19.862
		c5.539-1.028,11.213-1.087,16.772-0.177h0.088c0.618-0.971,1.324-2.03,2.03-3.001s1.501-2.03,2.295-3.001
		c0.422-0.598,0.895-1.159,1.412-1.677c0.16-0.248,0.37-0.458,0.618-0.618l0.088-0.088l0.177-0.177c0-0.088,0.088-0.177,0.177-0.265
		c0.794-0.971,1.677-1.854,2.648-2.825c3.795-3.718,7.966-7.032,12.447-9.887c9.297-5.957,19.837-9.702,30.808-10.946
		c5.728-0.699,11.529-0.55,17.214,0.441l0.088-0.088c2.305-4.919,5.407-9.422,9.181-13.33l2.383-2.383
		c0.811-0.811,1.666-1.577,2.56-2.295c0.85-0.809,1.765-1.547,2.737-2.207c3.049-2.316,6.298-4.354,9.71-6.091
		c0.088,0,0.177,0,0.177-0.088c16.505-8.491,35.597-10.476,53.495-5.561c5.422,1.551,10.595,3.87,15.36,6.886
		c0.507-0.915,1.067-1.799,1.677-2.648c0.618-0.883,1.236-1.766,1.854-2.56c4.722-5.858,10.859-10.415,17.832-13.241
		c2.035-0.88,4.13-1.618,6.268-2.207c1.059-0.353,2.207-0.617,3.266-0.883c1.148-0.265,2.295-0.441,3.443-0.618
		c0.167-0.072,0.349-0.102,0.53-0.088h0.265c0.895-0.24,1.812-0.387,2.737-0.441c11.665-1.17,23.438,0.589,34.251,5.12
		c9.862,3.901,18.685,10.035,25.777,17.92l0.265,0.088c9.699-4.428,20.576-5.575,30.985-3.266L451.396,81.482z"/>
	<g>
		<path style="fill:#ffca8a;" d="M87.964,343.131c0.263,3.719-1.865,7.194-5.297,8.651c-0.911,0.449-1.9,0.719-2.913,0.794
			c-1.942,0.088-3.972,0.177-6.003,0.177c-5.236-0.002-10.463-0.445-15.625-1.324c-16.905-2.792-32.603-10.533-45.109-22.246
			c3.095-3.864,6.901-7.1,11.211-9.534c-0.172-0.372-0.379-0.726-0.618-1.059c-0.53-0.883-1.059-1.766-1.501-2.648
			c-1.077-2.008-2.049-4.071-2.913-6.179c10.558,12.924,25.466,21.555,41.931,24.276c5.77,0.995,11.638,1.292,17.479,0.883
			c2.448-0.09,4.831,0.799,6.621,2.472C86.884,338.853,87.873,340.925,87.964,343.131z"/>
		<path style="fill:#ffca8a;" d="M106.767,262.8c-0.075,0.538-0.193,1.069-0.353,1.589c-1.245,3.573-4.603,5.976-8.386,6.003
			c-0.414,0.012-0.828-0.018-1.236-0.088c-10.493-1.515-20.544-5.247-29.484-10.946c-11.539-7.305-20.9-17.581-27.101-29.749
			c2.837-2.225,5.917-4.12,9.181-5.65c-0.608-3.409-0.903-6.866-0.883-10.328c0.021-3.699,0.345-7.389,0.971-11.034
			c0.265-1.412,0.53-2.737,0.883-4.149c0.36,18.834,10.315,36.179,26.394,45.992c6.85,4.372,14.555,7.231,22.599,8.386
			C104.14,253.555,107.448,258.005,106.767,262.8L106.767,262.8z"/>
		<path style="fill:#ffca8a;" d="M149.051,196.152c0.033,1.048-0.116,2.093-0.441,3.09c-0.613,1.992-1.973,3.669-3.796,4.679v0.088
			c0,0.088,0,0.088-0.088,0c0,0.024-0.009,0.046-0.025,0.063c-0.017,0.017-0.039,0.026-0.063,0.025
			c-1.22,0.765-2.621,1.191-4.061,1.236c-0.971,0-1.854,0.088-2.825,0.088c-19.533-0.106-38.228-7.946-51.994-21.804
			c-6.127-6.155-11.145-13.322-14.83-21.186c3.005-2.92,6.253-5.578,9.71-7.945c-0.177-1.236-0.353-2.472-0.441-3.796
			c-0.088-1.324-0.177-2.56-0.177-3.884c-0.014-1.948,0.104-3.894,0.353-5.826c0.179-1.719,0.444-3.428,0.794-5.12
			c0.105-0.627,0.253-1.246,0.441-1.854c-0.021-0.21,0.009-0.422,0.088-0.618c0.476,14.214,6.384,27.705,16.508,37.694
			c11.003,11.045,26.082,17.051,41.666,16.596C144.732,187.518,148.821,191.293,149.051,196.152L149.051,196.152z"/>
		<path style="fill:#ffca8a;" d="M320.748,23.131c-1.247,2.016-2.333,4.126-3.249,6.312c-5.231,14.504-3.682,30.589,4.22,43.829
			c2.353,4.267,0.814,9.634-3.443,12.006c-1.31,0.681-2.761,1.044-4.237,1.059c-3.236,0.014-6.219-1.749-7.768-4.59
			c-10.369-17.735-11.997-39.257-4.414-58.35c1.034-2.451,2.213-4.839,3.531-7.151C310.81,17.796,315.982,20.115,320.748,23.131"/>
		<path style="fill:#ffca8a;" d="M225.305,48.326c-3.272,8.257-4.183,17.261-2.632,26.005c1.967,10.917,8.11,20.638,17.126,27.101
			c2.996,2.317,4.191,6.279,2.975,9.865s-4.573,6.006-8.36,6.024c-0.473,0.015-0.945-0.015-1.412-0.088
			c-1.455-0.234-2.824-0.843-3.972-1.766c-12.524-9.185-21.029-22.843-23.746-38.135c-1.717-9.884-0.835-20.044,2.56-29.484
			c5.728-0.699,11.529-0.55,17.214,0.441l0.088-0.088"/>
		<path style="fill:#ffca8a;" d="M155.142,80.334c-6.111,16.667-3.983,35.242,5.739,50.094c5.218,7.882,12.438,14.235,20.92,18.408
			c4.322,2.257,6.017,7.576,3.796,11.917c-0.115,0.254-0.263,0.492-0.441,0.706c0,0.088-0.088,0.088-0.177,0.177
			c-0.805,1.282-1.972,2.296-3.354,2.913c-2.491,1.325-5.484,1.292-7.945-0.088c-30.514-15.773-45.406-51.091-35.399-83.95
			c5.539-1.028,11.213-1.087,16.772-0.177L155.142,80.334"/>
	</g>
	<path style="fill:#ffdebb;" d="M510.894,115.556c-9.092,34.074-67.443,118.466-171.608,222.632S150.728,500.704,116.654,509.796
		c-25.777,6.885-53.319-1.854-76.712-25.335c-19.862-19.774-25.512-47.404-15.448-66.825v-0.177
		c8.89,8.544,20.531,13.645,32.839,14.389c5.768,0.307,11.53-0.689,16.861-2.913l1.501-0.441c-0.177-0.53-0.353-1.148-0.53-1.677
		c-8.262-28.24-10.31-57.934-6.003-87.04c3.945-27.348,11.887-53.968,23.57-79.007c11.455-24.81,25.924-48.114,43.079-69.385
		c8.341-10.475,17.271-20.466,26.748-29.926c3.796-3.796,7.592-7.415,11.476-10.946c19.446-17.937,40.891-33.576,63.912-46.61
		c26.492-15.272,55.203-26.321,85.098-32.75c23.646-5.158,47.969-6.469,72.033-3.884l0.177-1.236l0.706-5.65
		c0.078-4.009,0.702-7.988,1.854-11.829c1.92-6.53,5.44-12.477,10.24-17.302c3.171-3.142,6.84-5.737,10.858-7.68h-0.177
		l-0.088-0.088l0.088-0.088c19.421-10.063,47.051-4.414,66.825,15.448C509.04,62.238,517.779,89.78,510.894,115.556z"/>
	<g>
		<path style="fill:#ffca8a;" d="M209.473,405.738c-3.737,0.005-7.072-2.344-8.327-5.864s-0.157-7.449,2.741-9.809
			c37.285-30.651,72.997-63.166,107-97.422c3.447-3.447,9.036-3.447,12.483,0s3.447,9.036,0,12.483
			c-34.426,34.679-70.581,67.597-108.327,98.629C213.471,405.04,211.503,405.74,209.473,405.738z"/>
		<path style="fill:#ffca8a;" d="M350.922,272.945c-3.525,0.002-6.713-2.094-8.109-5.331s-0.733-6.994,1.687-9.557
			c5.647-5.974,11.118-11.862,16.414-17.664c2.127-2.332,5.338-3.351,8.42-2.672c3.083,0.678,5.569,2.951,6.521,5.96
			s0.225,6.298-1.907,8.626c-5.371,5.871-10.905,11.828-16.603,17.871C355.676,271.945,353.352,272.946,350.922,272.945
			L350.922,272.945z"/>
		<path style="fill:#ffca8a;" d="M461.459,89.956c-1.64,2.197-4.232,3.477-6.974,3.443c-1.95-0.008-3.843-0.659-5.385-1.854
			c-15.964-12.183-34.31-20.874-53.848-25.512l0.706-5.65c0.078-4.009,0.702-7.988,1.854-11.829
			c22.512,5.169,43.666,15.07,62.058,29.043c1.864,1.418,3.082,3.524,3.38,5.847C463.549,85.767,462.904,88.113,461.459,89.956
			L461.459,89.956z"/>
		<path style="fill:#ffca8a;" d="M92.466,459.214c-3.169,3.704-8.741,4.139-12.447,0.971c-8.83-8.357-16.464-17.892-22.687-28.337
			c5.768,0.307,11.53-0.689,16.861-2.913l1.501-0.441c-0.177-0.53-0.353-1.148-0.53-1.677c4.55,7.334,10.04,14.042,16.331,19.95
			c1.782,1.52,2.885,3.687,3.067,6.022S93.99,457.436,92.466,459.214L92.466,459.214z"/>
	</g>
</g>
<g>
</g>
<g>
</g>
<g>
</g>
<g>
</g>
<g>
</g>
<g>
</g>
<g>
</g>
<g>
</g>
<g>
</g>
<g>
</g>
<g>
</g>
<g>
</g>
<g>
</g>
<g>
</g>
<g>
</g>
</svg>
